<?xml version="1.0" encoding="UTF-8" standalone="no"?>
<!DOCTYPE svg PUBLIC "-//W3C//DTD SVG 1.1//EN" "http://www.w3.org/Graphics/SVG/1.1/DTD/svg11.dtd">
<svg width="48px" height="48px" version="1.1" xmlns="http://www.w3.org/2000/svg" xmlns:xlink="http://www.w3.org/1999/xlink" xml:space="preserve" xmlns:serif="http://www.serif.com/" style="fill-rule:evenodd;clip-rule:evenodd;stroke-linecap:round;stroke-linejoin:round;stroke-miterlimit:1.5;">
    <g transform="matrix(1,0,0,0.936436,1,1.75844)">
        <path d="M4,5.81C4,4.743 4.738,3.839 5.728,3.694C9.346,3.217 17.883,2.883 24,9L24,36.571C24,37.079 23.735,37.546 23.313,37.781C22.89,38.016 22.38,37.982 21.99,37.691C19.482,36.29 14.416,34.293 5.907,34.029C4.848,33.976 4.016,33.044 4.016,31.913C4,26.321 4,11.068 4,5.81ZM22,35.318C19.126,33.897 14.025,32.151 6.016,31.896L6.007,26.21C6.002,19.41 6.001,12.61 6,5.81L6,5.81C9.186,5.394 16.502,5.032 21.999,9.959L22,35.318Z" style="fill:rgb(42,157,143);"/>
    </g>
    <g transform="matrix(-1,0,0,0.936436,47,1.75844)">
        <path d="M4,5.81C4,4.743 4.738,3.839 5.728,3.694C9.346,3.217 17.883,2.883 24,9L24,36.569C24,37.078 23.735,37.545 23.312,37.78C22.889,38.016 22.379,37.981 21.988,37.69C19.48,36.29 14.415,34.293 5.907,34.029C4.848,33.976 4.016,33.044 4.016,31.913C4,26.321 4,11.068 4,5.81ZM6,5.81L6,5.81C6,11.064 6,26.297 6.016,31.896C14.013,32.146 19.123,33.895 22,35.318L22,9.96C16.502,5.032 9.186,5.394 6,5.81Z" style="fill:rgb(42,157,143);"/>
    </g>
    <g transform="matrix(0.947368,0,0,0.936436,1.26316,0.796811)">
        <path d="M5,38.661C5,38.661 18.305,38.394 24,44C24,44 32.588,37.366 43,38.661" style="fill:none;stroke:rgb(42,157,143);stroke-width:2.12px;"/>
    </g>
</svg>
