<?xml version="1.0" encoding="UTF-8" standalone="no"?>
<!DOCTYPE svg PUBLIC "-//W3C//DTD SVG 1.1//EN" "http://www.w3.org/Graphics/SVG/1.1/DTD/svg11.dtd">
<svg width="48px" height="48px" version="1.1" xmlns="http://www.w3.org/2000/svg" xmlns:xlink="http://www.w3.org/1999/xlink" xml:space="preserve" xmlns:serif="http://www.serif.com/" style="fill-rule:evenodd;clip-rule:evenodd;stroke-linejoin:round;stroke-miterlimit:2;">
    <g transform="matrix(0.617536,0.61855,-0.896403,0.894934,27.3532,-9.31481)">
        <path d="M34.109,8.5C34.048,7.659 33.043,7 31.824,7C28.119,7 20.619,7 16.838,7C15.575,7 14.55,7.707 14.55,8.579C14.55,11.671 14.55,18.227 14.55,18.227L24.269,24.922L34.777,17.659C34.777,17.659 34.323,11.436 34.109,8.5ZM16.838,8.579L31.824,8.579L32.441,17.039C32.441,17.039 24.266,22.689 24.266,22.689C24.266,22.689 16.838,17.572 16.838,17.572L16.838,8.579Z" style="fill:rgb(42,157,143);"/>
    </g>
    <path d="M33,27.04L20,27L20,16" style="fill:none;"/>
    <g transform="matrix(5.55112e-17,0.874045,-1.26667,1.11022e-16,51.8667,13.2825)">
        <path d="M34,8.579C34,8.16 33.759,7.759 33.33,7.462C32.901,7.166 32.319,7 31.712,7C27.969,7 20.581,7 16.838,7C16.232,7 15.65,7.166 15.22,7.462C14.791,7.759 14.55,8.16 14.55,8.579C14.55,12.016 14.55,20.142 14.55,23.579C14.55,23.998 14.791,24.399 15.22,24.695C15.65,24.992 16.232,25.158 16.838,25.158C21.98,25.158 34,25.158 34,25.158L34,8.579ZM16.838,23.579C16.838,23.579 16.838,8.579 16.838,8.579L31.712,8.579C31.712,8.579 31.712,23.579 31.712,23.579L16.838,23.579Z" style="fill:rgb(42,157,143);"/>
    </g>
    <g transform="matrix(0.874045,0,0,1.26667,-7.71752,-3.86667)">
        <path d="M34,8.579C34,8.16 33.759,7.759 33.33,7.462C32.901,7.166 32.319,7 31.712,7C27.969,7 20.581,7 16.838,7C16.232,7 15.65,7.166 15.22,7.462C14.791,7.759 14.55,8.16 14.55,8.579C14.55,13.764 14.55,30.236 14.55,35.421C14.55,35.84 14.791,36.241 15.22,36.538C15.65,36.834 16.232,37 16.838,37C20.581,37 27.969,37 31.712,37C32.319,37 32.901,36.834 33.33,36.538C33.759,36.241 34,35.84 34,35.421C34,30.236 34,13.764 34,8.579ZM31.712,8.579L31.712,35.421L16.838,35.421L16.838,8.579L31.712,8.579Z" style="fill:rgb(42,157,143);"/>
    </g>
    <g transform="matrix(1,-5.55112e-17,-5.55112e-17,1,-1,3.55271e-15)">
        <circle cx="14" cy="37" r="1" style="fill:rgb(42,157,143);"/>
    </g>
</svg>
